<svg width="92" height="23" viewBox="0 0 92 23" fill="none" xmlns="http://www.w3.org/2000/svg">
<path d="M12.3841 21.5599C12.1601 21.5599 11.9761 21.5039 11.8321 21.3919C11.7041 21.2959 11.5841 21.1679 11.4721 21.0079L10.6561 19.9279C10.0481 20.1359 9.33608 20.2399 8.52008 20.2399C6.26408 20.2399 4.48808 19.6879 3.19208 18.5839C1.91208 17.4799 1.23208 15.8559 1.15208 13.7119C1.13608 13.2479 1.12808 12.5599 1.12808 11.6479C1.12808 10.7199 1.13608 10.0239 1.15208 9.55993C1.21608 7.44793 1.90408 5.82393 3.21608 4.68793C4.54408 3.53593 6.31208 2.95993 8.52008 2.95993C10.7281 2.95993 12.4961 3.53593 13.8241 4.68793C15.1521 5.82393 15.8481 7.44793 15.9121 9.55993C15.9441 10.4879 15.9601 11.1839 15.9601 11.6479C15.9601 12.0959 15.9441 12.7839 15.9121 13.7119C15.8481 15.6799 15.2721 17.2159 14.1841 18.3199L15.9361 20.8159C15.9841 20.9119 16.0081 20.9919 16.0081 21.0559V21.1039C16.0081 21.2319 15.9601 21.3359 15.8641 21.4159C15.7681 21.5119 15.6561 21.5599 15.5281 21.5599H12.3841ZM8.52008 16.7839C9.40008 16.7839 10.0961 16.5199 10.6081 15.9919C11.1361 15.4639 11.4161 14.6559 11.4481 13.5679C11.4801 12.6399 11.4961 11.9839 11.4961 11.5999C11.4961 11.1839 11.4801 10.5279 11.4481 9.63193C11.4161 8.54393 11.1361 7.73593 10.6081 7.20793C10.0961 6.67993 9.40008 6.41593 8.52008 6.41593C7.65608 6.41593 6.96008 6.67993 6.43208 7.20793C5.92008 7.73593 5.64808 8.54393 5.61608 9.63193C5.60008 10.0799 5.59208 10.7359 5.59208 11.5999C5.59208 12.4479 5.60008 13.1039 5.61608 13.5679C5.64808 14.6559 5.92008 15.4639 6.43208 15.9919C6.94408 16.5199 7.64008 16.7839 8.52008 16.7839Z" fill="#0F4C81"/>
<path d="M19.366 19.9999C19.206 19.9999 19.062 19.9439 18.934 19.8319C18.822 19.7039 18.766 19.5599 18.766 19.3999V3.79993C18.766 3.62393 18.822 3.47993 18.934 3.36793C19.062 3.25593 19.206 3.19993 19.366 3.19993H26.686C28.702 3.19993 30.198 3.61593 31.174 4.44793C32.166 5.26393 32.662 6.43193 32.662 7.95193C32.662 8.75193 32.454 9.43193 32.038 9.99193C31.638 10.5359 31.182 10.9359 30.67 11.1919C31.326 11.4959 31.878 11.9839 32.326 12.6559C32.774 13.3279 32.998 14.0799 32.998 14.9119C32.998 16.5119 32.47 17.7599 31.414 18.6559C30.358 19.5519 28.854 19.9999 26.902 19.9999H19.366ZM26.206 9.87193C26.846 9.87193 27.334 9.71193 27.67 9.39193C28.006 9.05593 28.174 8.61593 28.174 8.07193C28.174 7.54393 28.006 7.11993 27.67 6.79993C27.334 6.47993 26.846 6.31993 26.206 6.31993H23.086V9.87193H26.206ZM26.422 16.8799C27.078 16.8799 27.59 16.6879 27.958 16.3039C28.326 15.9199 28.51 15.4559 28.51 14.9119C28.51 14.3359 28.326 13.8639 27.958 13.4959C27.59 13.1119 27.078 12.9199 26.422 12.9199H23.086V16.8799H26.422Z" fill="#0F4C81"/>
<path d="M36.2645 19.9999C36.1045 19.9999 35.9605 19.9439 35.8325 19.8319C35.7205 19.7039 35.6645 19.5599 35.6645 19.3999V3.79993C35.6645 3.62393 35.7205 3.47993 35.8325 3.36793C35.9605 3.25593 36.1045 3.19993 36.2645 3.19993H42.7925C44.8885 3.19993 46.5205 3.67993 47.6885 4.63993C48.8725 5.58393 49.4645 6.92793 49.4645 8.67193C49.4645 9.79193 49.2005 10.7439 48.6725 11.5279C48.1445 12.3119 47.4165 12.9119 46.4885 13.3279L49.7765 19.2319C49.8245 19.3279 49.8485 19.4159 49.8485 19.4959C49.8485 19.6239 49.7925 19.7439 49.6805 19.8559C49.5845 19.9519 49.4725 19.9999 49.3445 19.9999H46.1525C45.6885 19.9999 45.3605 19.7839 45.1685 19.3519L42.4325 14.0719H39.9845V19.3999C39.9845 19.5759 39.9205 19.7199 39.7925 19.8319C39.6805 19.9439 39.5365 19.9999 39.3605 19.9999H36.2645ZM42.7445 10.6639C43.4805 10.6639 44.0405 10.4879 44.4245 10.1359C44.8085 9.76793 45.0005 9.26393 45.0005 8.62393C45.0005 7.98393 44.8085 7.47993 44.4245 7.11193C44.0565 6.72793 43.4965 6.53593 42.7445 6.53593H39.9845V10.6639H42.7445Z" fill="#0F4C81"/>
<path d="M52.8582 19.9999C52.6982 19.9999 52.5542 19.9439 52.4262 19.8319C52.3142 19.7039 52.2582 19.5599 52.2582 19.3999V3.79993C52.2582 3.62393 52.3142 3.47993 52.4262 3.36793C52.5542 3.25593 52.6982 3.19993 52.8582 3.19993H56.0742C56.2502 3.19993 56.3942 3.25593 56.5062 3.36793C56.6342 3.47993 56.6982 3.62393 56.6982 3.79993V19.3999C56.6982 19.5759 56.6342 19.7199 56.5062 19.8319C56.3942 19.9439 56.2502 19.9999 56.0742 19.9999H52.8582Z" fill="#0F4C81"/>
<path d="M66.9275 20.2399C64.6395 20.2399 62.8475 19.6879 61.5515 18.5839C60.2715 17.4639 59.5915 15.8479 59.5115 13.7359C59.4955 13.3039 59.4875 12.5999 59.4875 11.6239C59.4875 10.6319 59.4955 9.91193 59.5115 9.46393C59.5915 7.38393 60.2875 5.78393 61.5995 4.66393C62.9115 3.52793 64.6875 2.95993 66.9275 2.95993C68.3355 2.95993 69.5995 3.19993 70.7195 3.67993C71.8395 4.14393 72.7195 4.81593 73.3595 5.69593C74.0155 6.55993 74.3515 7.57593 74.3675 8.74393V8.79193C74.3675 8.91993 74.3115 9.03193 74.1995 9.12793C74.1035 9.20793 73.9915 9.24793 73.8635 9.24793H70.6235C70.4155 9.24793 70.2555 9.20793 70.1435 9.12793C70.0315 9.03193 69.9355 8.86393 69.8555 8.62393C69.6315 7.80793 69.2795 7.23993 68.7995 6.91993C68.3195 6.58393 67.6875 6.41593 66.9035 6.41593C65.0155 6.41593 64.0395 7.47193 63.9755 9.58393C63.9595 10.0159 63.9515 10.6799 63.9515 11.5759C63.9515 12.4719 63.9595 13.1519 63.9755 13.6159C64.0395 15.7279 65.0155 16.7839 66.9035 16.7839C67.6875 16.7839 68.3275 16.6159 68.8235 16.2799C69.3195 15.9279 69.6635 15.3599 69.8555 14.5759C69.9195 14.3359 70.0075 14.1759 70.1195 14.0959C70.2315 13.9999 70.3995 13.9519 70.6235 13.9519H73.8635C74.0075 13.9519 74.1275 13.9999 74.2235 14.0959C74.3355 14.1919 74.3835 14.3119 74.3675 14.4559C74.3515 15.6239 74.0155 16.6479 73.3595 17.5279C72.7195 18.3919 71.8395 19.0639 70.7195 19.5439C69.5995 20.0079 68.3355 20.2399 66.9275 20.2399Z" fill="#0F4C81"/>
<path d="M77.491 19.9999C77.331 19.9999 77.187 19.9439 77.059 19.8319C76.947 19.7039 76.891 19.5599 76.891 19.3999V3.79993C76.891 3.62393 76.947 3.47993 77.059 3.36793C77.187 3.25593 77.331 3.19993 77.491 3.19993H80.515C80.691 3.19993 80.835 3.25593 80.947 3.36793C81.059 3.47993 81.115 3.62393 81.115 3.79993V9.12793L85.555 3.65593C85.747 3.35193 86.059 3.19993 86.491 3.19993H89.947C90.091 3.19993 90.211 3.25593 90.307 3.36793C90.403 3.46393 90.451 3.57593 90.451 3.70393C90.451 3.81593 90.427 3.91193 90.379 3.99193L84.619 11.2399L90.811 19.2079C90.875 19.2719 90.907 19.3679 90.907 19.4959C90.907 19.6239 90.859 19.7439 90.763 19.8559C90.667 19.9519 90.547 19.9999 90.403 19.9999H86.827C86.443 19.9999 86.123 19.8399 85.867 19.5199L81.115 13.5919V19.3999C81.115 19.5759 81.059 19.7199 80.947 19.8319C80.835 19.9439 80.691 19.9999 80.515 19.9999H77.491Z" fill="#0F4C81"/>
<path d="M12.3841 21.5599C12.1601 21.5599 11.9761 21.5039 11.8321 21.3919C11.7041 21.2959 11.5841 21.1679 11.4721 21.0079L10.6561 19.9279C10.0481 20.1359 9.33608 20.2399 8.52008 20.2399C6.26408 20.2399 4.48808 19.6879 3.19208 18.5839C1.91208 17.4799 1.23208 15.8559 1.15208 13.7119C1.13608 13.2479 1.12808 12.5599 1.12808 11.6479C1.12808 10.7199 1.13608 10.0239 1.15208 9.55993C1.21608 7.44793 1.90408 5.82393 3.21608 4.68793C4.54408 3.53593 6.31208 2.95993 8.52008 2.95993C10.7281 2.95993 12.4961 3.53593 13.8241 4.68793C15.1521 5.82393 15.8481 7.44793 15.9121 9.55993C15.9441 10.4879 15.9601 11.1839 15.9601 11.6479C15.9601 12.0959 15.9441 12.7839 15.9121 13.7119C15.8481 15.6799 15.2721 17.2159 14.1841 18.3199L15.9361 20.8159C15.9841 20.9119 16.0081 20.9919 16.0081 21.0559V21.1039C16.0081 21.2319 15.9601 21.3359 15.8641 21.4159C15.7681 21.5119 15.6561 21.5599 15.5281 21.5599H12.3841ZM8.52008 16.7839C9.40008 16.7839 10.0961 16.5199 10.6081 15.9919C11.1361 15.4639 11.4161 14.6559 11.4481 13.5679C11.4801 12.6399 11.4961 11.9839 11.4961 11.5999C11.4961 11.1839 11.4801 10.5279 11.4481 9.63193C11.4161 8.54393 11.1361 7.73593 10.6081 7.20793C10.0961 6.67993 9.40008 6.41593 8.52008 6.41593C7.65608 6.41593 6.96008 6.67993 6.43208 7.20793C5.92008 7.73593 5.64808 8.54393 5.61608 9.63193C5.60008 10.0799 5.59208 10.7359 5.59208 11.5999C5.59208 12.4479 5.60008 13.1039 5.61608 13.5679C5.64808 14.6559 5.92008 15.4639 6.43208 15.9919C6.94408 16.5199 7.64008 16.7839 8.52008 16.7839Z" stroke="#0F4C81"/>
<path d="M19.366 19.9999C19.206 19.9999 19.062 19.9439 18.934 19.8319C18.822 19.7039 18.766 19.5599 18.766 19.3999V3.79993C18.766 3.62393 18.822 3.47993 18.934 3.36793C19.062 3.25593 19.206 3.19993 19.366 3.19993H26.686C28.702 3.19993 30.198 3.61593 31.174 4.44793C32.166 5.26393 32.662 6.43193 32.662 7.95193C32.662 8.75193 32.454 9.43193 32.038 9.99193C31.638 10.5359 31.182 10.9359 30.67 11.1919C31.326 11.4959 31.878 11.9839 32.326 12.6559C32.774 13.3279 32.998 14.0799 32.998 14.9119C32.998 16.5119 32.47 17.7599 31.414 18.6559C30.358 19.5519 28.854 19.9999 26.902 19.9999H19.366ZM26.206 9.87193C26.846 9.87193 27.334 9.71193 27.67 9.39193C28.006 9.05593 28.174 8.61593 28.174 8.07193C28.174 7.54393 28.006 7.11993 27.67 6.79993C27.334 6.47993 26.846 6.31993 26.206 6.31993H23.086V9.87193H26.206ZM26.422 16.8799C27.078 16.8799 27.59 16.6879 27.958 16.3039C28.326 15.9199 28.51 15.4559 28.51 14.9119C28.51 14.3359 28.326 13.8639 27.958 13.4959C27.59 13.1119 27.078 12.9199 26.422 12.9199H23.086V16.8799H26.422Z" stroke="#0F4C81"/>
<path d="M36.2645 19.9999C36.1045 19.9999 35.9605 19.9439 35.8325 19.8319C35.7205 19.7039 35.6645 19.5599 35.6645 19.3999V3.79993C35.6645 3.62393 35.7205 3.47993 35.8325 3.36793C35.9605 3.25593 36.1045 3.19993 36.2645 3.19993H42.7925C44.8885 3.19993 46.5205 3.67993 47.6885 4.63993C48.8725 5.58393 49.4645 6.92793 49.4645 8.67193C49.4645 9.79193 49.2005 10.7439 48.6725 11.5279C48.1445 12.3119 47.4165 12.9119 46.4885 13.3279L49.7765 19.2319C49.8245 19.3279 49.8485 19.4159 49.8485 19.4959C49.8485 19.6239 49.7925 19.7439 49.6805 19.8559C49.5845 19.9519 49.4725 19.9999 49.3445 19.9999H46.1525C45.6885 19.9999 45.3605 19.7839 45.1685 19.3519L42.4325 14.0719H39.9845V19.3999C39.9845 19.5759 39.9205 19.7199 39.7925 19.8319C39.6805 19.9439 39.5365 19.9999 39.3605 19.9999H36.2645ZM42.7445 10.6639C43.4805 10.6639 44.0405 10.4879 44.4245 10.1359C44.8085 9.76793 45.0005 9.26393 45.0005 8.62393C45.0005 7.98393 44.8085 7.47993 44.4245 7.11193C44.0565 6.72793 43.4965 6.53593 42.7445 6.53593H39.9845V10.6639H42.7445Z" stroke="#0F4C81"/>
<path d="M52.8582 19.9999C52.6982 19.9999 52.5542 19.9439 52.4262 19.8319C52.3142 19.7039 52.2582 19.5599 52.2582 19.3999V3.79993C52.2582 3.62393 52.3142 3.47993 52.4262 3.36793C52.5542 3.25593 52.6982 3.19993 52.8582 3.19993H56.0742C56.2502 3.19993 56.3942 3.25593 56.5062 3.36793C56.6342 3.47993 56.6982 3.62393 56.6982 3.79993V19.3999C56.6982 19.5759 56.6342 19.7199 56.5062 19.8319C56.3942 19.9439 56.2502 19.9999 56.0742 19.9999H52.8582Z" stroke="#0F4C81"/>
<path d="M66.9275 20.2399C64.6395 20.2399 62.8475 19.6879 61.5515 18.5839C60.2715 17.4639 59.5915 15.8479 59.5115 13.7359C59.4955 13.3039 59.4875 12.5999 59.4875 11.6239C59.4875 10.6319 59.4955 9.91193 59.5115 9.46393C59.5915 7.38393 60.2875 5.78393 61.5995 4.66393C62.9115 3.52793 64.6875 2.95993 66.9275 2.95993C68.3355 2.95993 69.5995 3.19993 70.7195 3.67993C71.8395 4.14393 72.7195 4.81593 73.3595 5.69593C74.0155 6.55993 74.3515 7.57593 74.3675 8.74393V8.79193C74.3675 8.91993 74.3115 9.03193 74.1995 9.12793C74.1035 9.20793 73.9915 9.24793 73.8635 9.24793H70.6235C70.4155 9.24793 70.2555 9.20793 70.1435 9.12793C70.0315 9.03193 69.9355 8.86393 69.8555 8.62393C69.6315 7.80793 69.2795 7.23993 68.7995 6.91993C68.3195 6.58393 67.6875 6.41593 66.9035 6.41593C65.0155 6.41593 64.0395 7.47193 63.9755 9.58393C63.9595 10.0159 63.9515 10.6799 63.9515 11.5759C63.9515 12.4719 63.9595 13.1519 63.9755 13.6159C64.0395 15.7279 65.0155 16.7839 66.9035 16.7839C67.6875 16.7839 68.3275 16.6159 68.8235 16.2799C69.3195 15.9279 69.6635 15.3599 69.8555 14.5759C69.9195 14.3359 70.0075 14.1759 70.1195 14.0959C70.2315 13.9999 70.3995 13.9519 70.6235 13.9519H73.8635C74.0075 13.9519 74.1275 13.9999 74.2235 14.0959C74.3355 14.1919 74.3835 14.3119 74.3675 14.4559C74.3515 15.6239 74.0155 16.6479 73.3595 17.5279C72.7195 18.3919 71.8395 19.0639 70.7195 19.5439C69.5995 20.0079 68.3355 20.2399 66.9275 20.2399Z" stroke="#0F4C81"/>
<path d="M77.491 19.9999C77.331 19.9999 77.187 19.9439 77.059 19.8319C76.947 19.7039 76.891 19.5599 76.891 19.3999V3.79993C76.891 3.62393 76.947 3.47993 77.059 3.36793C77.187 3.25593 77.331 3.19993 77.491 3.19993H80.515C80.691 3.19993 80.835 3.25593 80.947 3.36793C81.059 3.47993 81.115 3.62393 81.115 3.79993V9.12793L85.555 3.65593C85.747 3.35193 86.059 3.19993 86.491 3.19993H89.947C90.091 3.19993 90.211 3.25593 90.307 3.36793C90.403 3.46393 90.451 3.57593 90.451 3.70393C90.451 3.81593 90.427 3.91193 90.379 3.99193L84.619 11.2399L90.811 19.2079C90.875 19.2719 90.907 19.3679 90.907 19.4959C90.907 19.6239 90.859 19.7439 90.763 19.8559C90.667 19.9519 90.547 19.9999 90.403 19.9999H86.827C86.443 19.9999 86.123 19.8399 85.867 19.5199L81.115 13.5919V19.3999C81.115 19.5759 81.059 19.7199 80.947 19.8319C80.835 19.9439 80.691 19.9999 80.515 19.9999H77.491Z" stroke="#0F4C81"/>
<path d="M12.1267 20.5438C11.9027 20.5438 11.7187 20.4878 11.5747 20.3758C11.4467 20.2798 11.3267 20.1518 11.2147 19.9918L10.3987 18.9118C9.79067 19.1198 9.07867 19.2238 8.26267 19.2238C6.00667 19.2238 4.23067 18.6718 2.93467 17.5678C1.65467 16.4638 0.974667 14.8398 0.894666 12.6958C0.878666 12.2318 0.870667 11.5438 0.870667 10.6318C0.870667 9.70385 0.878666 9.00785 0.894666 8.54385C0.958666 6.43185 1.64667 4.80785 2.95867 3.67185C4.28667 2.51985 6.05467 1.94385 8.26267 1.94385C10.4707 1.94385 12.2387 2.51985 13.5667 3.67185C14.8947 4.80785 15.5907 6.43185 15.6547 8.54385C15.6867 9.47185 15.7027 10.1678 15.7027 10.6318C15.7027 11.0798 15.6867 11.7678 15.6547 12.6958C15.5907 14.6638 15.0147 16.1998 13.9267 17.3038L15.6787 19.7998C15.7267 19.8958 15.7507 19.9758 15.7507 20.0398V20.0878C15.7507 20.2158 15.7027 20.3198 15.6067 20.3998C15.5107 20.4958 15.3987 20.5438 15.2707 20.5438H12.1267ZM8.26267 15.7678C9.14267 15.7678 9.83867 15.5038 10.3507 14.9758C10.8787 14.4478 11.1587 13.6398 11.1907 12.5518C11.2227 11.6238 11.2387 10.9678 11.2387 10.5838C11.2387 10.1678 11.2227 9.51185 11.1907 8.61585C11.1587 7.52785 10.8787 6.71985 10.3507 6.19185C9.83867 5.66385 9.14267 5.39985 8.26267 5.39985C7.39867 5.39985 6.70267 5.66385 6.17467 6.19185C5.66267 6.71985 5.39067 7.52785 5.35867 8.61585C5.34267 9.06385 5.33467 9.71985 5.33467 10.5838C5.33467 11.4318 5.34267 12.0878 5.35867 12.5518C5.39067 13.6398 5.66267 14.4478 6.17467 14.9758C6.68667 15.5038 7.38267 15.7678 8.26267 15.7678Z" fill="#8F4DB5"/>
<path d="M19.1086 18.9838C18.9486 18.9838 18.8046 18.9278 18.6766 18.8158C18.5646 18.6878 18.5086 18.5438 18.5086 18.3838V2.78385C18.5086 2.60785 18.5646 2.46385 18.6766 2.35185C18.8046 2.23985 18.9486 2.18385 19.1086 2.18385H26.4286C28.4446 2.18385 29.9406 2.59985 30.9166 3.43185C31.9086 4.24785 32.4046 5.41585 32.4046 6.93585C32.4046 7.73585 32.1966 8.41585 31.7806 8.97585C31.3806 9.51985 30.9246 9.91985 30.4126 10.1758C31.0686 10.4798 31.6206 10.9678 32.0686 11.6398C32.5166 12.3118 32.7406 13.0638 32.7406 13.8958C32.7406 15.4958 32.2126 16.7438 31.1566 17.6398C30.1006 18.5358 28.5966 18.9838 26.6446 18.9838H19.1086ZM25.9486 8.85585C26.5886 8.85585 27.0766 8.69585 27.4126 8.37585C27.7486 8.03985 27.9166 7.59985 27.9166 7.05585C27.9166 6.52785 27.7486 6.10385 27.4126 5.78385C27.0766 5.46385 26.5886 5.30385 25.9486 5.30385H22.8286V8.85585H25.9486ZM26.1646 15.8638C26.8206 15.8638 27.3326 15.6718 27.7006 15.2878C28.0686 14.9038 28.2526 14.4398 28.2526 13.8958C28.2526 13.3198 28.0686 12.8478 27.7006 12.4798C27.3326 12.0958 26.8206 11.9038 26.1646 11.9038H22.8286V15.8638H26.1646Z" fill="#8F4DB5"/>
<path d="M36.007 18.9838C35.847 18.9838 35.703 18.9278 35.575 18.8158C35.463 18.6878 35.407 18.5438 35.407 18.3838V2.78385C35.407 2.60785 35.463 2.46385 35.575 2.35185C35.703 2.23985 35.847 2.18385 36.007 2.18385H42.535C44.631 2.18385 46.263 2.66385 47.431 3.62385C48.615 4.56785 49.207 5.91185 49.207 7.65585C49.207 8.77585 48.943 9.72785 48.415 10.5118C47.887 11.2958 47.159 11.8958 46.231 12.3118L49.519 18.2158C49.567 18.3118 49.591 18.3998 49.591 18.4798C49.591 18.6078 49.535 18.7278 49.423 18.8398C49.327 18.9359 49.215 18.9838 49.087 18.9838H45.895C45.431 18.9838 45.103 18.7678 44.911 18.3358L42.175 13.0558H39.727V18.3838C39.727 18.5598 39.663 18.7038 39.535 18.8158C39.423 18.9278 39.279 18.9838 39.103 18.9838H36.007ZM42.487 9.64785C43.223 9.64785 43.783 9.47185 44.167 9.11985C44.551 8.75185 44.743 8.24785 44.743 7.60785C44.743 6.96785 44.551 6.46385 44.167 6.09585C43.799 5.71185 43.239 5.51985 42.487 5.51985H39.727V9.64785H42.487Z" fill="#8F4DB5"/>
<path d="M52.6008 18.9838C52.4408 18.9838 52.2968 18.9278 52.1688 18.8158C52.0568 18.6878 52.0008 18.5438 52.0008 18.3838V2.78385C52.0008 2.60785 52.0568 2.46385 52.1688 2.35185C52.2968 2.23985 52.4408 2.18385 52.6008 2.18385H55.8168C55.9928 2.18385 56.1368 2.23985 56.2488 2.35185C56.3768 2.46385 56.4408 2.60785 56.4408 2.78385V18.3838C56.4408 18.5598 56.3768 18.7038 56.2488 18.8158C56.1368 18.9278 55.9928 18.9838 55.8168 18.9838H52.6008Z" fill="#8F4DB5"/>
<path d="M66.67 19.2238C64.382 19.2238 62.59 18.6718 61.294 17.5678C60.014 16.4478 59.334 14.8318 59.254 12.7198C59.238 12.2878 59.23 11.5838 59.23 10.6078C59.23 9.61585 59.238 8.89585 59.254 8.44785C59.334 6.36785 60.03 4.76785 61.342 3.64785C62.654 2.51185 64.43 1.94385 66.67 1.94385C68.078 1.94385 69.342 2.18385 70.462 2.66385C71.582 3.12785 72.462 3.79985 73.102 4.67985C73.758 5.54385 74.094 6.55985 74.11 7.72785V7.77585C74.11 7.90385 74.054 8.01585 73.942 8.11185C73.846 8.19185 73.734 8.23185 73.606 8.23185H70.366C70.158 8.23185 69.998 8.19185 69.886 8.11185C69.774 8.01585 69.678 7.84785 69.598 7.60785C69.374 6.79185 69.022 6.22385 68.542 5.90385C68.062 5.56785 67.43 5.39985 66.646 5.39985C64.758 5.39985 63.782 6.45585 63.718 8.56785C63.702 8.99985 63.694 9.66385 63.694 10.5598C63.694 11.4558 63.702 12.1358 63.718 12.5998C63.782 14.7118 64.758 15.7678 66.646 15.7678C67.43 15.7678 68.07 15.5998 68.566 15.2638C69.062 14.9118 69.406 14.3438 69.598 13.5598C69.662 13.3198 69.75 13.1598 69.862 13.0798C69.974 12.9838 70.142 12.9358 70.366 12.9358H73.606C73.75 12.9358 73.87 12.9838 73.966 13.0798C74.078 13.1758 74.126 13.2958 74.11 13.4398C74.094 14.6078 73.758 15.6318 73.102 16.5118C72.462 17.3758 71.582 18.0478 70.462 18.5278C69.342 18.9918 68.078 19.2238 66.67 19.2238Z" fill="#8F4DB5"/>
<path d="M77.2336 18.9838C77.0736 18.9838 76.9296 18.9278 76.8016 18.8158C76.6896 18.6878 76.6336 18.5438 76.6336 18.3838V2.78385C76.6336 2.60785 76.6896 2.46385 76.8016 2.35185C76.9296 2.23985 77.0736 2.18385 77.2336 2.18385H80.2576C80.4336 2.18385 80.5776 2.23985 80.6896 2.35185C80.8016 2.46385 80.8576 2.60785 80.8576 2.78385V8.11185L85.2976 2.63985C85.4896 2.33585 85.8016 2.18385 86.2336 2.18385H89.6896C89.8336 2.18385 89.9536 2.23985 90.0496 2.35185C90.1456 2.44785 90.1936 2.55985 90.1936 2.68785C90.1936 2.79985 90.1696 2.89585 90.1216 2.97585L84.3616 10.2238L90.5536 18.1918C90.6176 18.2558 90.6496 18.3518 90.6496 18.4798C90.6496 18.6078 90.6016 18.7278 90.5056 18.8398C90.4096 18.9359 90.2896 18.9838 90.1456 18.9838H86.5696C86.1856 18.9838 85.8656 18.8238 85.6096 18.5038L80.8576 12.5758V18.3838C80.8576 18.5598 80.8016 18.7038 80.6896 18.8158C80.5776 18.9278 80.4336 18.9838 80.2576 18.9838H77.2336Z" fill="#8F4DB5"/>
<path d="M12.1267 20.5438C11.9027 20.5438 11.7187 20.4878 11.5747 20.3758C11.4467 20.2798 11.3267 20.1518 11.2147 19.9918L10.3987 18.9118C9.79067 19.1198 9.07867 19.2238 8.26267 19.2238C6.00667 19.2238 4.23067 18.6718 2.93467 17.5678C1.65467 16.4638 0.974667 14.8398 0.894666 12.6958C0.878666 12.2318 0.870667 11.5438 0.870667 10.6318C0.870667 9.70385 0.878666 9.00785 0.894666 8.54385C0.958666 6.43185 1.64667 4.80785 2.95867 3.67185C4.28667 2.51985 6.05467 1.94385 8.26267 1.94385C10.4707 1.94385 12.2387 2.51985 13.5667 3.67185C14.8947 4.80785 15.5907 6.43185 15.6547 8.54385C15.6867 9.47185 15.7027 10.1678 15.7027 10.6318C15.7027 11.0798 15.6867 11.7678 15.6547 12.6958C15.5907 14.6638 15.0147 16.1998 13.9267 17.3038L15.6787 19.7998C15.7267 19.8958 15.7507 19.9758 15.7507 20.0398V20.0878C15.7507 20.2158 15.7027 20.3198 15.6067 20.3998C15.5107 20.4958 15.3987 20.5438 15.2707 20.5438H12.1267ZM8.26267 15.7678C9.14267 15.7678 9.83867 15.5038 10.3507 14.9758C10.8787 14.4478 11.1587 13.6398 11.1907 12.5518C11.2227 11.6238 11.2387 10.9678 11.2387 10.5838C11.2387 10.1678 11.2227 9.51185 11.1907 8.61585C11.1587 7.52785 10.8787 6.71985 10.3507 6.19185C9.83867 5.66385 9.14267 5.39985 8.26267 5.39985C7.39867 5.39985 6.70267 5.66385 6.17467 6.19185C5.66267 6.71985 5.39067 7.52785 5.35867 8.61585C5.34267 9.06385 5.33467 9.71985 5.33467 10.5838C5.33467 11.4318 5.34267 12.0878 5.35867 12.5518C5.39067 13.6398 5.66267 14.4478 6.17467 14.9758C6.68667 15.5038 7.38267 15.7678 8.26267 15.7678Z" stroke="#8F4DB5"/>
<path d="M19.1086 18.9838C18.9486 18.9838 18.8046 18.9278 18.6766 18.8158C18.5646 18.6878 18.5086 18.5438 18.5086 18.3838V2.78385C18.5086 2.60785 18.5646 2.46385 18.6766 2.35185C18.8046 2.23985 18.9486 2.18385 19.1086 2.18385H26.4286C28.4446 2.18385 29.9406 2.59985 30.9166 3.43185C31.9086 4.24785 32.4046 5.41585 32.4046 6.93585C32.4046 7.73585 32.1966 8.41585 31.7806 8.97585C31.3806 9.51985 30.9246 9.91985 30.4126 10.1758C31.0686 10.4798 31.6206 10.9678 32.0686 11.6398C32.5166 12.3118 32.7406 13.0638 32.7406 13.8958C32.7406 15.4958 32.2126 16.7438 31.1566 17.6398C30.1006 18.5358 28.5966 18.9838 26.6446 18.9838H19.1086ZM25.9486 8.85585C26.5886 8.85585 27.0766 8.69585 27.4126 8.37585C27.7486 8.03985 27.9166 7.59985 27.9166 7.05585C27.9166 6.52785 27.7486 6.10385 27.4126 5.78385C27.0766 5.46385 26.5886 5.30385 25.9486 5.30385H22.8286V8.85585H25.9486ZM26.1646 15.8638C26.8206 15.8638 27.3326 15.6718 27.7006 15.2878C28.0686 14.9038 28.2526 14.4398 28.2526 13.8958C28.2526 13.3198 28.0686 12.8478 27.7006 12.4798C27.3326 12.0958 26.8206 11.9038 26.1646 11.9038H22.8286V15.8638H26.1646Z" stroke="#8F4DB5"/>
<path d="M36.007 18.9838C35.847 18.9838 35.703 18.9278 35.575 18.8158C35.463 18.6878 35.407 18.5438 35.407 18.3838V2.78385C35.407 2.60785 35.463 2.46385 35.575 2.35185C35.703 2.23985 35.847 2.18385 36.007 2.18385H42.535C44.631 2.18385 46.263 2.66385 47.431 3.62385C48.615 4.56785 49.207 5.91185 49.207 7.65585C49.207 8.77585 48.943 9.72785 48.415 10.5118C47.887 11.2958 47.159 11.8958 46.231 12.3118L49.519 18.2158C49.567 18.3118 49.591 18.3998 49.591 18.4798C49.591 18.6078 49.535 18.7278 49.423 18.8398C49.327 18.9359 49.215 18.9838 49.087 18.9838H45.895C45.431 18.9838 45.103 18.7678 44.911 18.3358L42.175 13.0558H39.727V18.3838C39.727 18.5598 39.663 18.7038 39.535 18.8158C39.423 18.9278 39.279 18.9838 39.103 18.9838H36.007ZM42.487 9.64785C43.223 9.64785 43.783 9.47185 44.167 9.11985C44.551 8.75185 44.743 8.24785 44.743 7.60785C44.743 6.96785 44.551 6.46385 44.167 6.09585C43.799 5.71185 43.239 5.51985 42.487 5.51985H39.727V9.64785H42.487Z" stroke="#8F4DB5"/>
<path d="M52.6008 18.9838C52.4408 18.9838 52.2968 18.9278 52.1688 18.8158C52.0568 18.6878 52.0008 18.5438 52.0008 18.3838V2.78385C52.0008 2.60785 52.0568 2.46385 52.1688 2.35185C52.2968 2.23985 52.4408 2.18385 52.6008 2.18385H55.8168C55.9928 2.18385 56.1368 2.23985 56.2488 2.35185C56.3768 2.46385 56.4408 2.60785 56.4408 2.78385V18.3838C56.4408 18.5598 56.3768 18.7038 56.2488 18.8158C56.1368 18.9278 55.9928 18.9838 55.8168 18.9838H52.6008Z" stroke="#8F4DB5"/>
<path d="M66.67 19.2238C64.382 19.2238 62.59 18.6718 61.294 17.5678C60.014 16.4478 59.334 14.8318 59.254 12.7198C59.238 12.2878 59.23 11.5838 59.23 10.6078C59.23 9.61585 59.238 8.89585 59.254 8.44785C59.334 6.36785 60.03 4.76785 61.342 3.64785C62.654 2.51185 64.43 1.94385 66.67 1.94385C68.078 1.94385 69.342 2.18385 70.462 2.66385C71.582 3.12785 72.462 3.79985 73.102 4.67985C73.758 5.54385 74.094 6.55985 74.11 7.72785V7.77585C74.11 7.90385 74.054 8.01585 73.942 8.11185C73.846 8.19185 73.734 8.23185 73.606 8.23185H70.366C70.158 8.23185 69.998 8.19185 69.886 8.11185C69.774 8.01585 69.678 7.84785 69.598 7.60785C69.374 6.79185 69.022 6.22385 68.542 5.90385C68.062 5.56785 67.43 5.39985 66.646 5.39985C64.758 5.39985 63.782 6.45585 63.718 8.56785C63.702 8.99985 63.694 9.66385 63.694 10.5598C63.694 11.4558 63.702 12.1358 63.718 12.5998C63.782 14.7118 64.758 15.7678 66.646 15.7678C67.43 15.7678 68.07 15.5998 68.566 15.2638C69.062 14.9118 69.406 14.3438 69.598 13.5598C69.662 13.3198 69.75 13.1598 69.862 13.0798C69.974 12.9838 70.142 12.9358 70.366 12.9358H73.606C73.75 12.9358 73.87 12.9838 73.966 13.0798C74.078 13.1758 74.126 13.2958 74.11 13.4398C74.094 14.6078 73.758 15.6318 73.102 16.5118C72.462 17.3758 71.582 18.0478 70.462 18.5278C69.342 18.9918 68.078 19.2238 66.67 19.2238Z" stroke="#8F4DB5"/>
<path d="M77.2336 18.9838C77.0736 18.9838 76.9296 18.9278 76.8016 18.8158C76.6896 18.6878 76.6336 18.5438 76.6336 18.3838V2.78385C76.6336 2.60785 76.6896 2.46385 76.8016 2.35185C76.9296 2.23985 77.0736 2.18385 77.2336 2.18385H80.2576C80.4336 2.18385 80.5776 2.23985 80.6896 2.35185C80.8016 2.46385 80.8576 2.60785 80.8576 2.78385V8.11185L85.2976 2.63985C85.4896 2.33585 85.8016 2.18385 86.2336 2.18385H89.6896C89.8336 2.18385 89.9536 2.23985 90.0496 2.35185C90.1456 2.44785 90.1936 2.55985 90.1936 2.68785C90.1936 2.79985 90.1696 2.89585 90.1216 2.97585L84.3616 10.2238L90.5536 18.1918C90.6176 18.2558 90.6496 18.3518 90.6496 18.4798C90.6496 18.6078 90.6016 18.7278 90.5056 18.8398C90.4096 18.9359 90.2896 18.9838 90.1456 18.9838H86.5696C86.1856 18.9838 85.8656 18.8238 85.6096 18.5038L80.8576 12.5758V18.3838C80.8576 18.5598 80.8016 18.7038 80.6896 18.8158C80.5776 18.9278 80.4336 18.9838 80.2576 18.9838H77.2336Z" stroke="#8F4DB5"/>
<path d="M11.6792 19.5776C11.4552 19.5776 11.2712 19.5216 11.1272 19.4096C10.9992 19.3136 10.8792 19.1856 10.7672 19.0256L9.95116 17.9456C9.34316 18.1536 8.63116 18.2576 7.81516 18.2576C5.55916 18.2576 3.78316 17.7056 2.48716 16.6016C1.20716 15.4976 0.527157 13.8736 0.447157 11.7296C0.431157 11.2656 0.423157 10.5776 0.423157 9.6656C0.423157 8.7376 0.431157 8.0416 0.447157 7.5776C0.511157 5.4656 1.19916 3.8416 2.51116 2.7056C3.83916 1.5536 5.60716 0.9776 7.81516 0.9776C10.0232 0.9776 11.7912 1.5536 13.1192 2.7056C14.4472 3.8416 15.1432 5.4656 15.2072 7.5776C15.2392 8.5056 15.2552 9.2016 15.2552 9.6656C15.2552 10.1136 15.2392 10.8016 15.2072 11.7296C15.1432 13.6976 14.5672 15.2336 13.4792 16.3376L15.2312 18.8336C15.2792 18.9296 15.3032 19.0096 15.3032 19.0736V19.1216C15.3032 19.2496 15.2552 19.3536 15.1592 19.4336C15.0632 19.5296 14.9512 19.5776 14.8232 19.5776H11.6792ZM7.81516 14.8016C8.69516 14.8016 9.39116 14.5376 9.90316 14.0096C10.4312 13.4816 10.7112 12.6736 10.7432 11.5856C10.7752 10.6576 10.7912 10.0016 10.7912 9.6176C10.7912 9.2016 10.7752 8.5456 10.7432 7.6496C10.7112 6.5616 10.4312 5.7536 9.90316 5.2256C9.39116 4.6976 8.69516 4.4336 7.81516 4.4336C6.95116 4.4336 6.25516 4.6976 5.72716 5.2256C5.21516 5.7536 4.94316 6.5616 4.91116 7.6496C4.89516 8.0976 4.88716 8.7536 4.88716 9.6176C4.88716 10.4656 4.89516 11.1216 4.91116 11.5856C4.94316 12.6736 5.21516 13.4816 5.72716 14.0096C6.23916 14.5376 6.93516 14.8016 7.81516 14.8016Z" fill="#0BDCFF"/>
<path d="M18.6611 18.0176C18.5011 18.0176 18.3571 17.9616 18.2291 17.8496C18.1171 17.7216 18.0611 17.5776 18.0611 17.4176V1.8176C18.0611 1.6416 18.1171 1.4976 18.2291 1.3856C18.3571 1.2736 18.5011 1.2176 18.6611 1.2176H25.9811C27.9971 1.2176 29.4931 1.6336 30.4691 2.4656C31.4611 3.2816 31.9571 4.4496 31.9571 5.9696C31.9571 6.7696 31.7491 7.4496 31.3331 8.0096C30.9331 8.5536 30.4771 8.9536 29.9651 9.2096C30.6211 9.5136 31.1731 10.0016 31.6211 10.6736C32.0691 11.3456 32.2931 12.0976 32.2931 12.9296C32.2931 14.5296 31.7651 15.7776 30.7091 16.6736C29.6531 17.5696 28.1491 18.0176 26.1971 18.0176H18.6611ZM25.5011 7.8896C26.1411 7.8896 26.6291 7.7296 26.9651 7.4096C27.3011 7.0736 27.4691 6.6336 27.4691 6.0896C27.4691 5.5616 27.3011 5.1376 26.9651 4.8176C26.6291 4.4976 26.1411 4.3376 25.5011 4.3376H22.3811V7.8896H25.5011ZM25.7171 14.8976C26.3731 14.8976 26.8851 14.7056 27.2531 14.3216C27.6211 13.9376 27.8051 13.4736 27.8051 12.9296C27.8051 12.3536 27.6211 11.8816 27.2531 11.5136C26.8851 11.1296 26.3731 10.9376 25.7171 10.9376H22.3811V14.8976H25.7171Z" fill="#0BDCFF"/>
<path d="M35.5595 18.0176C35.3995 18.0176 35.2555 17.9616 35.1275 17.8496C35.0155 17.7216 34.9595 17.5776 34.9595 17.4176V1.8176C34.9595 1.6416 35.0155 1.4976 35.1275 1.3856C35.2555 1.2736 35.3995 1.2176 35.5595 1.2176H42.0875C44.1835 1.2176 45.8155 1.6976 46.9835 2.6576C48.1675 3.6016 48.7595 4.9456 48.7595 6.6896C48.7595 7.8096 48.4955 8.7616 47.9675 9.5456C47.4395 10.3296 46.7115 10.9296 45.7835 11.3456L49.0715 17.2496C49.1195 17.3456 49.1435 17.4336 49.1435 17.5136C49.1435 17.6416 49.0875 17.7616 48.9755 17.8736C48.8795 17.9696 48.7675 18.0176 48.6395 18.0176H45.4475C44.9835 18.0176 44.6555 17.8016 44.4635 17.3696L41.7275 12.0896H39.2795V17.4176C39.2795 17.5936 39.2155 17.7376 39.0875 17.8496C38.9755 17.9616 38.8315 18.0176 38.6555 18.0176H35.5595ZM42.0395 8.6816C42.7755 8.6816 43.3355 8.5056 43.7195 8.1536C44.1035 7.7856 44.2955 7.2816 44.2955 6.6416C44.2955 6.0016 44.1035 5.4976 43.7195 5.1296C43.3515 4.7456 42.7915 4.5536 42.0395 4.5536H39.2795V8.6816H42.0395Z" fill="#0BDCFF"/>
<path d="M52.1533 18.0176C51.9933 18.0176 51.8493 17.9616 51.7213 17.8496C51.6093 17.7216 51.5533 17.5776 51.5533 17.4176V1.8176C51.5533 1.6416 51.6093 1.4976 51.7213 1.3856C51.8493 1.2736 51.9933 1.2176 52.1533 1.2176H55.3693C55.5453 1.2176 55.6893 1.2736 55.8013 1.3856C55.9293 1.4976 55.9933 1.6416 55.9933 1.8176V17.4176C55.9933 17.5936 55.9293 17.7376 55.8013 17.8496C55.6893 17.9616 55.5453 18.0176 55.3693 18.0176H52.1533Z" fill="#0BDCFF"/>
<path d="M66.2225 18.2576C63.9345 18.2576 62.1425 17.7056 60.8465 16.6016C59.5665 15.4816 58.8865 13.8656 58.8065 11.7536C58.7905 11.3216 58.7825 10.6176 58.7825 9.6416C58.7825 8.6496 58.7905 7.9296 58.8065 7.4816C58.8865 5.4016 59.5825 3.8016 60.8945 2.6816C62.2065 1.5456 63.9825 0.9776 66.2225 0.9776C67.6305 0.9776 68.8945 1.2176 70.0145 1.6976C71.1345 2.1616 72.0145 2.8336 72.6545 3.7136C73.3105 4.5776 73.6465 5.5936 73.6625 6.7616V6.8096C73.6625 6.9376 73.6065 7.0496 73.4945 7.1456C73.3985 7.2256 73.2865 7.2656 73.1585 7.2656H69.9185C69.7105 7.2656 69.5505 7.2256 69.4385 7.1456C69.3265 7.0496 69.2305 6.8816 69.1505 6.6416C68.9265 5.8256 68.5745 5.2576 68.0945 4.9376C67.6145 4.6016 66.9825 4.4336 66.1985 4.4336C64.3105 4.4336 63.3345 5.4896 63.2705 7.6016C63.2545 8.0336 63.2465 8.6976 63.2465 9.5936C63.2465 10.4896 63.2545 11.1696 63.2705 11.6336C63.3345 13.7456 64.3105 14.8016 66.1985 14.8016C66.9825 14.8016 67.6225 14.6336 68.1185 14.2976C68.6145 13.9456 68.9585 13.3776 69.1505 12.5936C69.2145 12.3536 69.3025 12.1936 69.4145 12.1136C69.5265 12.0176 69.6945 11.9696 69.9185 11.9696H73.1585C73.3025 11.9696 73.4225 12.0176 73.5185 12.1136C73.6305 12.2096 73.6785 12.3296 73.6625 12.4736C73.6465 13.6416 73.3105 14.6656 72.6545 15.5456C72.0145 16.4096 71.1345 17.0816 70.0145 17.5616C68.8945 18.0256 67.6305 18.2576 66.2225 18.2576Z" fill="#0BDCFF"/>
<path d="M76.7861 18.0176C76.6261 18.0176 76.4821 17.9616 76.3541 17.8496C76.2421 17.7216 76.1861 17.5776 76.1861 17.4176V1.8176C76.1861 1.6416 76.2421 1.4976 76.3541 1.3856C76.4821 1.2736 76.6261 1.2176 76.7861 1.2176H79.8101C79.9861 1.2176 80.1301 1.2736 80.2421 1.3856C80.3541 1.4976 80.4101 1.6416 80.4101 1.8176V7.1456L84.8501 1.6736C85.0421 1.3696 85.3541 1.2176 85.7861 1.2176H89.2421C89.3861 1.2176 89.5061 1.2736 89.6021 1.3856C89.6981 1.4816 89.7461 1.5936 89.7461 1.7216C89.7461 1.8336 89.7221 1.9296 89.6741 2.0096L83.9141 9.2576L90.1061 17.2256C90.1701 17.2896 90.2021 17.3856 90.2021 17.5136C90.2021 17.6416 90.1541 17.7616 90.0581 17.8736C89.9621 17.9696 89.8421 18.0176 89.6981 18.0176H86.1221C85.7381 18.0176 85.4181 17.8576 85.1621 17.5376L80.4101 11.6096V17.4176C80.4101 17.5936 80.3541 17.7376 80.2421 17.8496C80.1301 17.9616 79.9861 18.0176 79.8101 18.0176H76.7861Z" fill="#0BDCFF"/>
</svg>
