<svg width="17" height="19" viewBox="0 0 17 19" fill="none" xmlns="http://www.w3.org/2000/svg">
<path d="M3 1.93903C1.89543 1.93903 1 2.75893 1 3.77032V16.5894C1 17.6008 1.89543 18.4207 3 18.4207H5C6.10457 18.4207 7 17.6008 7 16.5894V3.77032C7 2.75893 6.10457 1.93903 5 1.93903H3Z" fill="#0F4C81"/>
<path d="M13 1.93903C11.8954 1.93903 11 2.75893 11 3.77032V16.5894C11 17.6008 11.8954 18.4207 13 18.4207H15C16.1046 18.4207 17 17.6008 17 16.5894V3.77032C17 2.75893 16.1046 1.93903 15 1.93903H13Z" fill="#0F4C81"/>
<path d="M2 0C0.895431 0 0 0.8199 0 1.8313V14.6504C0 15.6618 0.89543 16.4817 2 16.4817H4C5.10457 16.4817 6 15.6618 6 14.6504V1.8313C6 0.8199 5.10457 0 4 0H2Z" fill="#0BDCFF"/>
<path d="M12 0C10.8954 0 10 0.8199 10 1.8313V14.6504C10 15.6618 10.8954 16.4817 12 16.4817H14C15.1046 16.4817 16 15.6618 16 14.6504V1.8313C16 0.8199 15.1046 0 14 0H12Z" fill="#0BDCFF"/>
</svg>
